<svg width="28" height="29" fill="none" xmlns="http://www.w3.org/2000/svg">
    <path d="M27.822 13.936c-.25-.354-6.21-8.678-13.822-8.678-7.612 0-13.572 8.324-13.822 8.678a.985.985 0 000 1.128c.25.354 6.21 8.678 13.822 8.678 7.612 0 13.572-8.324 13.822-8.678a.983.983 0 000-1.128zM14 21.83c-5.607 0-10.464-5.525-11.901-7.33 1.436-1.808 6.282-7.33 11.9-7.33 5.608 0 10.464 5.524 11.902 7.33-1.436 1.808-6.282 7.33-11.901 7.33z" fill="#61656F"/>
    <path d="M14 8.764c-3.054 0-5.54 2.573-5.54 5.736s2.486 5.736 5.54 5.736c3.053 0 5.538-2.573 5.538-5.736s-2.485-5.736-5.539-5.736zm0 9.56c-2.037 0-3.693-1.715-3.693-3.824s1.656-3.824 3.692-3.824c2.036 0 3.693 1.715 3.693 3.824s-1.657 3.824-3.693 3.824z" fill="#61656F"/>
</svg>
