<svg width="20" height="20" fill="none" xmlns="http://www.w3.org/2000/svg">
    <path d="M15.707 10.293a.999.999 0 00-1.414 0l-1.594 1.594c-.74-.22-2.118-.72-2.992-1.594-.874-.874-1.374-2.253-1.594-2.992l1.594-1.594a.999.999 0 000-1.414l-4-4a.999.999 0 00-1.414 0L1.58 3.005c-.38.38-.594.902-.586 1.435.023 1.424.4 6.37 4.298 10.268 3.898 3.898 8.844 4.274 10.269 4.298h.028c.528 0 1.027-.208 1.405-.586l2.712-2.712a.999.999 0 000-1.414l-4-4.001zm-.127 6.712c-1.248-.021-5.518-.356-8.873-3.712C3.34 9.927 3.015 5.642 2.995 4.419L5 2.414 7.586 5 6.293 6.293a1 1 0 00-.272.912c.024.115.61 2.842 2.27 4.502 1.66 1.66 4.388 2.247 4.503 2.271a.991.991 0 00.912-.271L15 12.414 17.586 15l-2.006 2.005z" fill="#4F4F4F"/>
</svg>
