<svg width="43" height="36" fill="none" xmlns="http://www.w3.org/2000/svg">
    <path opacity=".2" d="M40.816 27.024c0 2.4-.816 4.464-2.448 6.192-1.632 1.632-3.648 2.448-6.048 2.448-3.168 0-5.52-1.008-7.056-3.024-1.44-2.112-2.16-4.512-2.16-7.2 0-2.112.384-4.32 1.152-6.624a28.546 28.546 0 013.312-6.912 32.553 32.553 0 015.184-6.336A28.902 28.902 0 0139.52.528l3.312 4.32c-3.36 2.592-5.76 4.944-7.2 7.056-1.344 2.016-2.016 4.224-2.016 6.624 2.112.288 3.84 1.248 5.184 2.88 1.344 1.536 2.016 3.408 2.016 5.616zm-23.04 0c0 2.4-.816 4.464-2.448 6.192-1.632 1.632-3.648 2.448-6.048 2.448-3.168 0-5.52-1.008-7.056-3.024-1.44-2.112-2.16-4.512-2.16-7.2 0-2.112.384-4.32 1.152-6.624a28.546 28.546 0 013.312-6.912 32.553 32.553 0 015.184-6.336A28.902 28.902 0 0116.48.528l3.312 4.32c-3.36 2.592-5.76 4.944-7.2 7.056-1.344 2.016-2.016 4.224-2.016 6.624 2.112.288 3.84 1.248 5.184 2.88 1.344 1.536 2.016 3.408 2.016 5.616z" fill="#BDBDBD"/>
</svg>
