<?xml version="1.0" encoding="utf-8"?><svg xmlns="http://www.w3.org/2000/svg" xmlns:xlink="http://www.w3.org/1999/xlink"><symbol viewBox="0 0 45 45" id="advantage-1" xmlns="http://www.w3.org/2000/svg"><path d="M26.562 21.968H25.34v-2.762a5.26 5.26 0 00-5.255-5.254 5.26 5.26 0 00-5.254 5.254v2.762h-1.22a.779.779 0 00-.78.778v11.478c0 .43.35.779.78.779h12.95c.43 0 .778-.349.778-.779V22.746a.779.779 0 00-.778-.778zm-10.173-2.761a3.702 3.702 0 013.697-3.698 3.702 3.702 0 013.698 3.698v2.76h-7.395v-2.76zm9.394 14.239H14.39v-9.921h11.393v9.921z"/><path d="M19.308 29.496v1.89a.779.779 0 001.557 0v-1.89a2.401 2.401 0 001.62-2.267 2.4 2.4 0 00-2.398-2.398 2.4 2.4 0 00-2.398 2.398c0 1.049.678 1.943 1.62 2.267zm.779-3.108a.841.841 0 010 1.681.841.841 0 010-1.68z"/><path d="M44.54 15.372a2.124 2.124 0 00-1.677-.813h-2.69v-2.8a1.977 1.977 0 00-1.976-1.975h-18.8a.307.307 0 01-.289-.204L18.3 7.32a1.922 1.922 0 00-1.805-1.273H7.069a1.92 1.92 0 00-1.805 1.272l-.809 2.262a.307.307 0 01-.288.203H1.976C.886 9.784 0 10.67 0 11.759v25.219c0 1.09.886 1.975 1.976 1.975h36.221c1.05 0 1.91-.824 1.97-1.859l4.773-19.9a2.125 2.125 0 00-.4-1.822zm-5.924 21.606a.42.42 0 01-.419.418H1.976a.419.419 0 01-.419-.418V11.759a.42.42 0 01.419-.418h2.19c.786 0 1.491-.497 1.756-1.237l.808-2.261a.361.361 0 01.34-.24h9.425c.151 0 .288.097.34.24l.807 2.261c.265.74.97 1.237 1.755 1.237h18.8a.42.42 0 01.419.418v25.219zm4.81-20.148l-3.253 13.564V16.116h2.69a.57.57 0 01.455.22.57.57 0 01.108.494z"/></symbol><symbol viewBox="0 0 45 45" id="advantage-2" xmlns="http://www.w3.org/2000/svg"><path d="M22.421 5.718a.885.885 0 00.885-.885V.885a.885.885 0 10-1.77 0v3.948c0 .489.396.885.885.885zm21.637 24.691l-1.564-1.56a2.934 2.934 0 00-2.087-.861c-.505 0-.99.126-1.42.361l-2.947-2.943.144-.143a3.072 3.072 0 000-4.338 3.037 3.037 0 00-1.541-.833c.08-.276.122-.566.122-.862a3.04 3.04 0 00-.898-2.169 3.04 3.04 0 00-1.54-.833 3.09 3.09 0 00.122-.86 3.04 3.04 0 00-.899-2.17 3.052 3.052 0 00-1.54-.832 3.077 3.077 0 00-.775-3.033 3.073 3.073 0 00-2.498-.876l-5.84-1.105c-.89-.17-2.002-.281-2.704.36-.044.04-.09.086-.134.138a3.078 3.078 0 00-3.23.71 3.045 3.045 0 00-.896 2.17c0 .296.042.585.122.861a3.03 3.03 0 00-1.538.832 3.041 3.041 0 00-.9 2.167c0 .297.042.587.122.864a3.04 3.04 0 00-1.54.83 3.048 3.048 0 00-.898 2.172c0 .629.188 1.228.536 1.734-.44.15-.842.397-1.18.734a3.073 3.073 0 00.002 4.34l.143.143-2.947 2.942a2.96 2.96 0 00-3.349.58l-1.564 1.56a2.93 2.93 0 00-.863 2.088c0 .79.306 1.532.863 2.087l1.952 1.95a.885.885 0 101.251-1.252l-1.952-1.95a1.172 1.172 0 01-.344-.835c0-.318.122-.614.343-.835l1.565-1.56c.39-.39.99-.45 1.444-.177a.889.889 0 00.365.313l8.973 8.96a.882.882 0 00.427.43c.19.215.295.49.295.782 0 .317-.122.614-.344.835l-1.563 1.561a1.19 1.19 0 01-1.674.002l-1.953-1.953a.885.885 0 00-1.251 1.252l1.954 1.954c.575.573 1.33.859 2.086.859a2.95 2.95 0 002.088-.86l1.564-1.562a2.93 2.93 0 00.863-2.088c0-.565-.157-1.103-.449-1.568L19.9 35.61l.01-.01c.38-.393 1.438-.32 2.46-.248.727.05 1.538.106 2.33.015l3.631 3.628a2.94 2.94 0 00-.36 1.417c0 .79.306 1.531.862 2.087l1.564 1.562a2.933 2.933 0 002.088.862 2.93 2.93 0 002.087-.862l9.488-9.475a2.93 2.93 0 00.863-2.088 2.93 2.93 0 00-.864-2.088zM20.568 9.09l3.84.727-2.298 2.297c-.356-.17-.843-.49-1.378-1-.731-.7-1.255-1.509-1.302-2.013V9.1a.79.79 0 01-.005-.087c.116-.028.424-.06 1.143.077zm-4.487.722a1.306 1.306 0 011.651-.157c.288 1.204 1.315 2.295 1.777 2.737.342.328 1.44 1.31 2.55 1.58.15.215.231.472.231.742a1.288 1.288 0 01-1.297 1.297 1.29 1.29 0 01-.92-.38l-3.992-3.985a1.286 1.286 0 01-.378-.917c0-.348.134-.674.378-.917zm-2.313 3.862c.243-.244.57-.378.918-.378.349 0 .676.134.921.38l3.214 3.207c.506.507.506 1.332.002 1.837a1.297 1.297 0 01-.922.378c-.35 0-.677-.134-.92-.377h-.001l-2.439-2.438-.011-.01-.763-.763a1.289 1.289 0 01-.38-.92c0-.347.135-.671.38-.916zm-2.318 3.862c.244-.243.57-.378.92-.378.347 0 .671.133.914.372l2.446 2.445c.244.242.378.568.378.916a1.29 1.29 0 01-1.298 1.295c-.35 0-.677-.135-.921-.378l-.887-.885v-.001l-1.552-1.55a1.29 1.29 0 01-.379-.918c0-.348.135-.674.38-.918zm-1.541 4.64c.245-.245.572-.38.92-.38.35 0 .677.135.922.379l.888.887c.244.243.378.568.378.916 0 .348-.134.674-.38.919a1.29 1.29 0 01-.92.378 1.29 1.29 0 01-.92-.38l-.111-.11-.004-.005-.005-.005-.767-.764a1.3 1.3 0 01-.001-1.836zm18.038 10.059a.885.885 0 00-1.252 0l-.787.786c-.749.748-2.105.654-3.416.563-1.424-.1-2.896-.201-3.849.777l-3.26 3.256-8.153-8.14 2.885-2.88a3.057 3.057 0 001.603.448c.823 0 1.594-.319 2.17-.896.58-.577.9-1.348.9-2.17l-.001-.023h.023a3.05 3.05 0 002.169-.894c.58-.578.9-1.349.9-2.17l-.001-.024h.023a3.058 3.058 0 003.069-3.087h.024c.822 0 1.593-.319 2.17-.897a3.045 3.045 0 00.897-2.17c0-.575-.156-1.124-.448-1.6l2.53-2.528a1.299 1.299 0 01.742-.366c.39-.054.8.067 1.1.364.506.507.506 1.332.002 1.838l-.77.767-.008.007-.887.886a.885.885 0 101.25 1.252l.774-.772.117-.117a1.304 1.304 0 011.837.005c.244.242.378.568.378.916 0 .348-.134.673-.38.918l-.774.776-.888.884a.885.885 0 101.25 1.254l.89-.887a1.29 1.29 0 01.92-.378c.349 0 .675.134.92.38.244.243.379.568.379.916 0 .348-.135.674-.38.918l-1.544 1.545a.885.885 0 001.252 1.251l.757-.757.013-.012c.243-.244.57-.378.919-.378a1.3 1.3 0 01.92 2.214l-.77.768v.001l-.001.001L32.939 26a.885.885 0 001.251 1.252l.598-.596 2.863 2.86-8.152 8.142-2.921-2.917c.203-.131.398-.285.581-.468l.787-.786a.885.885 0 00.001-1.252zm14.86 1.096l-9.487 9.476a1.175 1.175 0 01-.836.343c-.318 0-.615-.122-.837-.343l-1.564-1.563a1.17 1.17 0 01-.344-.834c0-.316.122-.612.344-.834l9.487-9.475c.222-.222.52-.344.837-.344.317 0 .614.122.837.344l1.563 1.56c.222.221.344.518.344.835 0 .317-.122.614-.344.835zM10.668 4.972a.882.882 0 001.252-.001.885.885 0 00-.002-1.252L8.693.499a.885.885 0 10-1.25 1.254l3.225 3.219zm22.882.258a.883.883 0 00.625-.258l3.223-3.22A.885.885 0 1036.148.5l-3.224 3.22a.885.885 0 00.626 1.51z"/><path d="M5.521 38.074a.885.885 0 00.011 1.252l.003.003a.883.883 0 001.25-.012.887.887 0 00-1.263-1.243zm24.591-7.114a.886.886 0 10-.398-1.675l-.005.002a.885.885 0 00.403 1.673z"/></symbol><symbol viewBox="0 0 45 45" id="advantage-3" xmlns="http://www.w3.org/2000/svg"><path d="M7.114 13.127l-1.275-.783c-.31.507-.6 1.032-.86 1.559l1.344.664c.236-.487.503-.972.79-1.44zm-2.827 2.335a19.314 19.314 0 00-.926 10.917l1.469-.3a17.827 17.827 0 01.854-10.073l-1.397-.544zM38.169 1.503a.75.75 0 00-.837.154L35.12 3.87a22.542 22.542 0 00-26.592.975l.933 1.174a21.034 21.034 0 0125.305-.565.75.75 0 00.969-.075l1.264-1.265-.46 7.82-7.82.46 1.049-1.05a.75.75 0 00-.155-1.179 14.32 14.32 0 00-15.04.473l.834 1.246A12.82 12.82 0 0127.99 11l-1.728 1.724a.749.749 0 00.574 1.28l10.454-.615a.75.75 0 00.705-.704l.614-10.455a.75.75 0 00-.441-.726zm-2.496 39.204l-.88-1.214a20.916 20.916 0 01-24.58.016.75.75 0 00-.97.075l-1.264 1.264.46-7.82 7.82-.46-1.049 1.05a.749.749 0 00.155 1.178 14.325 14.325 0 0015.005-.45l-.834-1.244a12.82 12.82 0 01-12.55.861l1.724-1.724a.75.75 0 00-.575-1.275l-10.454.615a.75.75 0 00-.704.704l-.615 10.455a.75.75 0 001.278.574l2.213-2.213a22.411 22.411 0 0025.816-.385l.004-.007z"/><path d="M4.652 36.187l1.188-.915a21.082 21.082 0 01-.38-25.068.75.75 0 00-.074-.969L4.122 7.971l7.82.46.46 7.821-1.05-1.05a.75.75 0 00-1.18.155 14.32 14.32 0 00.472 15.038l1.246-.834a12.816 12.816 0 01-.883-12.583l1.724 1.725a.75.75 0 001.278-.575l-.614-10.454a.75.75 0 00-.704-.705L2.235 6.355a.749.749 0 00-.57 1.283L3.878 9.85a22.597 22.597 0 00.774 26.337zm27.926-7.477l1.05 1.05a.75.75 0 001.179-.155 14.271 14.271 0 00.02-14.246l-1.298.75a12.765 12.765 0 01.442 11.875l-1.724-1.728a.75.75 0 00-1.274.574l.615 10.454a.75.75 0 00.704.705l10.454.615h.045a.75.75 0 00.53-1.28l-2.214-2.213a22.598 22.598 0 00-.775-26.338l-1.187.916a21.082 21.082 0 01.38 25.068.75.75 0 00.075.969l1.256 1.265-7.82-.46-.458-7.821zm-10.089-2.48a3.749 3.749 0 100-7.497 3.749 3.749 0 000 7.497zm0-5.998a2.249 2.249 0 110 4.498 2.249 2.249 0 010-4.498z"/><path d="M14.242 20.232a.75.75 0 00-.75.75v2.999c0 .414.336.75.75.75h1.099c.132.418.3.824.504 1.213l-.778.778a.75.75 0 000 1.06l2.12 2.121a.75.75 0 001.06 0l.779-.777a7.38 7.38 0 001.213.502v1.1c0 .414.336.75.75.75h2.999a.75.75 0 00.75-.75v-1.1a7.42 7.42 0 001.213-.503l.778.778a.75.75 0 001.06 0l2.121-2.12a.75.75 0 000-1.061l-.778-.778c.203-.389.372-.795.504-1.214h1.099a.75.75 0 00.75-.75v-2.998a.75.75 0 00-.75-.75h-1.1a7.417 7.417 0 00-.504-1.214l.78-.778a.75.75 0 000-1.06l-2.122-2.12a.75.75 0 00-1.06 0l-.778.777a7.468 7.468 0 00-1.214-.503v-1.1a.75.75 0 00-.75-.749H20.99a.75.75 0 00-.75.75v1.099c-.419.132-.824.3-1.213.503l-.779-.778a.75.75 0 00-1.06 0l-2.12 2.121a.75.75 0 000 1.06l.777.778c-.203.39-.371.796-.503 1.214h-1.1zm1.672 1.5a.75.75 0 00.731-.584c.15-.657.41-1.284.77-1.854a.75.75 0 00-.104-.93l-.654-.654 1.06-1.06.654.654a.75.75 0 00.93.104c.57-.36 1.197-.62 1.855-.77a.75.75 0 00.583-.731v-.922h1.499v.922c0 .35.242.653.583.731.658.15 1.284.41 1.854.77a.75.75 0 00.93-.104l.654-.654 1.06 1.06-.654.654a.75.75 0 00-.104.93c.36.57.62 1.196.77 1.853a.75.75 0 00.731.585h.923v1.499h-.923a.75.75 0 00-.73.584 5.95 5.95 0 01-.77 1.854.75.75 0 00.103.93l.654.653-1.06 1.06-.653-.654a.75.75 0 00-.93-.104c-.57.36-1.197.62-1.855.77a.75.75 0 00-.583.732v.922h-1.5v-.922a.75.75 0 00-.582-.732 5.932 5.932 0 01-1.854-.77.75.75 0 00-.931.104l-.653.654-1.06-1.06.653-.654a.75.75 0 00.104-.93 5.94 5.94 0 01-.77-1.854.75.75 0 00-.731-.583h-.922v-1.5h.922z"/></symbol><symbol viewBox="0 0 45 45" id="advantage-4" xmlns="http://www.w3.org/2000/svg"><path d="M13.848 20.37c-1.101-1.131-2.967-1.137-4.087-.028a2.86 2.86 0 00-.797 1.473l-1.392-1.363a2.13 2.13 0 01-.62-1.235l-1.048-7.893a2.974 2.974 0 00-2.94-2.574A2.968 2.968 0 000 11.714V23.05c0 1.085.386 2.138 1.088 2.965l3.716 4.381a.66.66 0 001.006-.852l-3.716-4.381a3.27 3.27 0 01-.776-2.113V11.714c0-.907.739-1.646 1.647-1.646.822 0 1.523.615 1.632 1.43l1.049 7.892c.1.758.457 1.47 1.003 2.005l3.124 3.057 2.956 2.894a.66.66 0 10.922-.942l-2.956-2.894a1.554 1.554 0 01-.47-1.114 1.55 1.55 0 01.463-1.117 1.577 1.577 0 012.219.016l6.1 6.213a4.387 4.387 0 011.262 3.09v13.743a.66.66 0 101.319 0V30.598a5.7 5.7 0 00-1.641-4.014l-6.099-6.213zM7.833 31.93a.66.66 0 00-1.005.852l3.18 3.749c.34.4.527.911.527 1.437v6.373a.659.659 0 101.319 0v-6.373c0-.838-.299-1.651-.841-2.29l-3.18-3.749zm13.67-14.34h1.993c.73 0 1.324-.594 1.324-1.324v-3.491h3.491c.73 0 1.323-.594 1.323-1.324V9.46c0-.73-.593-1.324-1.323-1.324H24.82V4.644c0-.73-.594-1.323-1.324-1.323h-1.992c-.73 0-1.324.593-1.324 1.323v3.492h-3.49c-.73 0-1.323.593-1.323 1.323v1.992c0 .73.593 1.324 1.323 1.324h3.491v3.491c0 .73.594 1.324 1.324 1.324zm-4.82-6.139l.006-1.997h3.819a.992.992 0 00.99-.991l.006-3.824 1.997.005v3.819c0 .546.445.99.991.99h3.82l.004.006-.005 1.997h-3.819a.992.992 0 00-.99.991l-.006 3.824-1.997-.005v-3.819a.992.992 0 00-.991-.99l-3.824-.006zm15.104 3.804a.66.66 0 00-1.17-.607 9.119 9.119 0 01-8.117 4.944c-5.038 0-9.137-4.099-9.137-9.137s4.099-9.137 9.137-9.137 9.137 4.1 9.137 9.137c0 .49-.04.981-.117 1.46a.66.66 0 001.302.21c.088-.548.133-1.11.133-1.67C32.955 4.69 28.265 0 22.5 0S12.045 4.69 12.045 10.455 16.735 20.91 22.5 20.91c3.919 0 7.477-2.167 9.287-5.655zM42.035 8.75a2.974 2.974 0 00-2.939 2.574l-1.049 7.893a2.13 2.13 0 01-.618 1.236l-1.392 1.362a2.86 2.86 0 00-.798-1.473c-1.125-1.114-2.989-1.1-4.087.029l-6.099 6.213a5.697 5.697 0 00-1.64 4.014v13.743a.66.66 0 101.318 0V30.598c0-1.163.448-2.26 1.263-3.09l6.099-6.213c.594-.614 1.61-.618 2.218-.016.3.297.466.694.464 1.116a1.554 1.554 0 01-.47 1.115l-2.956 2.894a.659.659 0 10.922.942l2.956-2.894 3.124-3.057a3.453 3.453 0 001.003-2.005l1.05-7.893a1.65 1.65 0 011.631-1.429c.908 0 1.647.739 1.647 1.646V23.05a3.27 3.27 0 01-.776 2.113l-8.919 10.515a3.545 3.545 0 00-.84 2.29v6.373a.66.66 0 101.318 0v-6.373c0-.526.187-1.036.527-1.437l8.92-10.516A4.589 4.589 0 0045 23.05V11.714a2.968 2.968 0 00-2.965-2.964z"/></symbol><symbol class="et898__icon et898__icon-close" viewBox="0 0 23 23" id="closed-social" xmlns="http://www.w3.org/2000/svg"><path d="M0 1.415L1.415 0l21.213 21.213-1.415 1.415z"/><path d="M21.213 0l1.415 1.415L1.415 22.628 0 21.213z"/></symbol></svg>