<svg width="24" height="24" fill="none" xmlns="http://www.w3.org/2000/svg">
    <path d="M12 23.833c6.535 0 11.832-5.298 11.832-11.833S18.535.167 12 .167C5.465.167.167 5.465.167 12S5.465 23.833 12 23.833z" fill="#8040BD"/>
    <path fill-rule="evenodd" clip-rule="evenodd" d="M15.22 11.271c.01-1.276-1.077-2.447-2.425-2.61l-.087-.012c-.067-.011-.136-.024-.205-.024-.276 0-.35.196-.37.31a.356.356 0 00.054.282c.09.125.252.147.382.165.037.005.074.01.104.016 1.21.271 1.618.697 1.818 1.897a.87.87 0 01.009.104c.01.144.026.442.347.442a.555.555 0 00.087-.007c.298-.045.29-.319.284-.45a.777.777 0 01.002-.113z" fill="#FEFEFE"/>
    <path fill-rule="evenodd" clip-rule="evenodd" d="M12.424 8.193c.036.002.07.005.098.01 1.99.305 2.903 1.248 3.156 3.252.005.034.005.076.006.12.003.156.008.482.358.49h.01c.111 0 .198-.034.26-.099.11-.114.102-.284.096-.42-.002-.033-.004-.065-.002-.091.024-2.051-1.75-3.91-3.798-3.979-.008 0-.017 0-.025.002h-.025l-.071-.003a1.434 1.434 0 00-.106-.005c-.327 0-.389.232-.396.37-.018.32.29.342.439.353zm3.159 5.852a12.665 12.665 0 00-.799-.59l-.138-.097c-.286-.2-.545-.299-.787-.299-.327 0-.612.181-.848.539-.105.157-.23.233-.387.233a.762.762 0 01-.312-.077c-.923-.42-1.584-1.06-1.96-1.91-.183-.409-.123-.677.197-.895.183-.123.522-.354.498-.795-.028-.5-1.132-2.007-1.598-2.178a.914.914 0 00-.617-.001c-.534.179-.918.495-1.11.912-.185.404-.177.878.024 1.371.58 1.426 1.397 2.67 2.426 3.695 1.008 1.003 2.246 1.825 3.68 2.443.13.056.266.087.366.108.033.009.062.015.083.02.011.003.023.006.037.006h.01c.676 0 1.486-.617 1.735-1.32.218-.616-.18-.92-.5-1.165zm-2.861-4.223c-.115.002-.355.008-.44.253-.04.114-.035.214.013.296.073.12.21.156.335.176.452.072.685.323.732.788.02.216.167.368.354.368l.042-.002c.226-.027.335-.193.325-.492.004-.313-.16-.668-.439-.952-.278-.284-.615-.442-.922-.435z" fill="#FEFEFE"/>
</svg>
