<svg xmlns="http://www.w3.org/2000/svg" viewBox="0 0 50 50" width="40" height="40">
    <style>
    </style>
    <path id="Layer" fill-rule="evenodd" d="M50 25c0 13.81-11.19 25-25 25S0 38.81 0 25 11.19 0 25 0s25 11.19 25 25zm-12.59-.1c.92-1.29 1.91-2.53 2.85-3.82.86-1.2 1.75-2.4 2.21-3.84.29-.92.03-1.32-.91-1.48-.16-.03-.33-.03-.49-.03l-5.57-.01c-.69-.01-1.07.29-1.31.9-.33.82-.67 1.64-1.06 2.44-.88 1.8-1.87 3.53-3.26 5.01-.3.32-.64.73-1.15.56-.64-.23-.83-1.29-.82-1.64v-6.43c-.13-.92-.33-1.33-1.25-1.51h-5.78c-.77 0-1.16.3-1.57.78-.24.28-.31.46.18.56.96.18 1.5.8 1.64 1.76.23 1.54.21 3.09.08 4.63-.04.45-.11.9-.29 1.33-.28.66-.74.79-1.33.39-.54-.37-.91-.89-1.28-1.42-1.39-1.96-2.5-4.07-3.4-6.29-.26-.65-.71-1.04-1.39-1.05-1.68-.02-3.35-.03-5.02.01-1.01.01-1.3.5-.9 1.41 1.83 4.05 3.85 7.99 6.5 11.58 1.36 1.84 2.91 3.46 4.93 4.61 2.28 1.31 4.74 1.7 7.33 1.58 1.21-.06 1.57-.37 1.63-1.58.04-.83.13-1.65.54-2.39.4-.73 1.01-.87 1.7-.41.35.22.65.51.93.82.68.74 1.34 1.51 2.04 2.23.89.91 1.94 1.44 3.27 1.33h5.12c.82-.05 1.25-1.06.78-1.99-.33-.64-.77-1.22-1.23-1.77-1.05-1.26-2.28-2.33-3.45-3.47-1.05-1.02-1.12-1.62-.27-2.8z" fill="#1976d2"/>
</svg>
