<svg width="25" height="25" fill="none" xmlns="http://www.w3.org/2000/svg">
    <path d="M12.5 24.826c6.807 0 12.325-5.519 12.325-12.326S19.307.174 12.5.174C5.692.174.174 5.693.174 12.5S5.692 24.826 12.5 24.826z" fill="#51B050"/>
    <path fill-rule="evenodd" clip-rule="evenodd" d="M18.09 12.356c0 3.008-2.458 5.445-5.49 5.445a5.49 5.49 0 01-2.65-.677l-3.04.966.991-2.922a5.386 5.386 0 01-.788-2.812c0-3.007 2.458-5.446 5.488-5.446 3.031 0 5.489 2.439 5.489 5.446zM12.6 7.778c-2.543 0-4.613 2.054-4.613 4.578 0 1.001.327 1.93.879 2.684l-.576 1.7 1.773-.563a4.61 4.61 0 002.54.757c2.542 0 4.613-2.054 4.613-4.578 0-2.524-2.071-4.578-4.615-4.578zm2.772 5.832c-.034-.056-.123-.088-.257-.155-.135-.067-.797-.39-.92-.435-.123-.044-.213-.067-.303.067s-.347.434-.425.523c-.078.09-.157.1-.292.034-.134-.067-.568-.208-1.082-.663a4.02 4.02 0 01-.747-.924c-.079-.133-.01-.206.058-.272.06-.06.135-.156.202-.233.068-.079.09-.134.135-.224.044-.088.023-.166-.011-.233-.035-.067-.303-.724-.416-.991-.11-.267-.223-.223-.302-.223-.08 0-.168-.011-.258-.011a.5.5 0 00-.359.167c-.122.133-.471.457-.471 1.113 0 .657.482 1.292.55 1.38.067.09.93 1.481 2.297 2.016 1.369.534 1.369.356 1.615.333.246-.022.796-.322.908-.634.112-.312.112-.58.078-.635z" fill="#FEFEFE"/>
</svg>
